<svg width="64" height="64" viewBox="0 0 64 64" fill="none" xmlns="http://www.w3.org/2000/svg">
<rect x="2" y="2" width="60" height="60" rx="15" stroke="#E3E3E3" stroke-width="3"/>
<path d="M21.6107 18.85C24.7441 17.9167 28.0941 17.45 31.6607 17.45C35.2607 17.45 37.8607 18.1333 39.4607 19.5C41.0607 20.8667 41.8607 23.05 41.8607 26.05C41.8607 27.5833 41.6441 28.7 41.2107 29.4C40.8107 30.0667 40.4774 30.5833 40.2107 30.95C39.9774 31.3167 39.6607 31.6667 39.2607 32C38.5274 32.5667 37.9441 32.9667 37.5107 33.2L36.9607 33.55C38.8941 34.25 40.3274 35.15 41.2607 36.25C42.1941 37.3167 42.6607 39.0833 42.6607 41.55C42.6607 44.9167 41.7941 47.4167 40.0607 49.05C38.3607 50.6833 35.6607 51.5 31.9607 51.5C29.0274 51.5 25.9274 51.1667 22.6607 50.5L21.1107 50.15L21.4607 47C25.0607 47.7333 28.4274 48.1 31.5607 48.1C36.3274 48.0667 38.7107 45.9333 38.7107 41.7C38.7107 37.7333 36.4441 35.6667 31.9107 35.5H25.2607V32.2H31.9107C33.3107 32.2 34.6607 31.65 35.9607 30.55C37.2607 29.4167 37.9107 27.9333 37.9107 26.1C37.9107 24.2667 37.3941 22.95 36.3607 22.15C35.3274 21.3167 33.5941 20.9 31.1607 20.9C28.4941 20.9 25.8607 21.15 23.2607 21.65L21.9607 21.9L21.6107 18.85Z" fill="#E3E3E3"/>
</svg>
