<svg width="64" height="64" viewBox="0 0 64 64" fill="none" xmlns="http://www.w3.org/2000/svg">
<rect x="2" y="2" width="60" height="60" rx="15" stroke="#E3E3E3" stroke-width="3"/>
<path d="M42.5607 51H21.4607V47.75L31.1107 37.6C32.7774 35.8667 33.9941 34.55 34.7607 33.65C35.5274 32.75 36.2107 31.6833 36.8107 30.45C37.4441 29.2167 37.7607 27.9833 37.7607 26.75C37.7607 24.6167 37.1774 23.1167 36.0107 22.25C34.8441 21.3833 33.0274 20.95 30.5607 20.95C28.3941 20.95 25.9774 21.2333 23.3107 21.8L22.0107 22.05L21.7107 18.85C24.8774 17.95 28.1441 17.5 31.5107 17.5C34.8774 17.5 37.4107 18.2167 39.1107 19.65C40.8441 21.05 41.7107 23.2833 41.7107 26.35C41.7107 28.6833 41.1941 30.7167 40.1607 32.45C39.1274 34.1833 37.3441 36.2667 34.8107 38.7L26.0107 47.65H42.5607V51Z" fill="#E3E3E3"/>
</svg>
